<?xml version="1.0" standalone="no"?><!DOCTYPE svg PUBLIC "-//W3C//DTD SVG 1.1//EN" "http://www.w3.org/Graphics/SVG/1.1/DTD/svg11.dtd"><svg t="1622949199774" class="icon" viewBox="0 0 1024 1024" version="1.1" xmlns="http://www.w3.org/2000/svg" p-id="3456" xmlns:xlink="http://www.w3.org/1999/xlink" width="200" height="200"><defs><style type="text/css"></style></defs><path d="M739.045484 909.263843a56.740121 56.740121 0 1 1 56.740121 56.740122 56.789118 56.789118 0 0 1-56.740121-56.740122z m-397.228846 0a56.76512 56.76512 0 1 1 56.740122 56.740122 56.789118 56.789118 0 0 1-56.740122-56.740122z m144.121148-113.530239A156.128327 156.128327 0 0 1 335.126096 679.700536L229.716302 281.909729l-0.15299-0.714951-34.473643-138.044564h-94.425546a42.542092 42.542092 0 1 1 0-85.084183h127.673273a42.654084 42.654084 0 0 1 41.315176 32.276793l34.472643 137.942571h619.337662a42.616087 42.616087 0 0 1 41.418169 52.296425l-92.846653 394.880006a155.622362 155.622362 0 0 1-151.935614 120.271778z m-68.588311-137.890574a71.028145 71.028145 0 0 0 68.588311 52.756394h234.160993a70.709166 70.709166 0 0 0 69.04828-54.645265l80.594491-342.532584h-543.552843z" p-id="3457"></path></svg>