<?xml version="1.0" standalone="no"?><!DOCTYPE svg PUBLIC "-//W3C//DTD SVG 1.1//EN" "http://www.w3.org/Graphics/SVG/1.1/DTD/svg11.dtd"><svg t="1622949238155" class="icon" viewBox="0 0 1024 1024" version="1.1" xmlns="http://www.w3.org/2000/svg" p-id="3588" xmlns:xlink="http://www.w3.org/1999/xlink" width="200" height="200"><defs><style type="text/css"></style></defs><path d="M948.543896 348.800031L536.116641 64.368028a42.460804 42.460804 0 0 0-48.465221 0L75.226165 348.800031A42.653753 42.653753 0 0 0 56.794025 383.898777v426.649504c0 86.297246 70.140506 156.437752 156.436752 156.437752h597.306507c86.295246 0 156.436752-70.140506 156.436752-156.437752V383.898777a42.656753 42.656753 0 0 0-18.43014-35.098746zM426.497545 881.597548V725.160795a71.170234 71.170234 0 0 1 71.107251-71.103252h28.4445a71.207225 71.207225 0 0 1 71.10825 71.107251V881.597548z m455.14799-71.051266a71.170234 71.170234 0 0 1-71.107251 71.10825H682.486048V725.160795c0-86.240261-70.140506-156.437752-156.436752-156.437751h-28.4445c-86.295246 0-156.436752 70.197491-156.436752 156.437751v156.494737H213.230777a71.134244 71.134244 0 0 1-71.107251-71.108251V406.312867L511.88503 151.290109l369.760505 255.022758z" p-id="3589"></path></svg>