<?xml version="1.0" standalone="no"?><!DOCTYPE svg PUBLIC "-//W3C//DTD SVG 1.1//EN" "http://www.w3.org/Graphics/SVG/1.1/DTD/svg11.dtd"><svg t="1622949157493" class="icon" viewBox="0 0 1024 1024" version="1.1" xmlns="http://www.w3.org/2000/svg" p-id="3324" xmlns:xlink="http://www.w3.org/1999/xlink" width="200" height="200"><defs><style type="text/css"></style></defs><path d="M221.403624 966.705731c-49.978427 0-95.738675-24.389473-119.356481-63.814456-20.519143-34.362168-21.230836-75.067598-1.981145-111.778751 49.672559-94.80208 161.563263-207.910257 412.161095-207.910258 250.491878 0 362.488535 113.108178 412.212072 207.910258 19.249691 36.714153 18.492018 77.416584-2.031123 111.778751-23.617806 39.424983-69.328075 63.814455-119.356481 63.814456z m-46.522919-135.7624c-5.383676 10.226586-5.485632 19.379635-0.29987 27.969927 6.704106 11.249144 23.871696 22.601244 46.827787 22.601245h581.648937c22.957091 0 40.123681-11.3521 46.827787-22.601245 5.180764-8.590292 5.078808-17.743341-0.299871-27.969927-38.865224-74.146995-129.017311-162.503857-337.357383-162.503857-208.395048 0-298.493158 88.356862-337.347387 162.503857z m111.636813-546.007321c0-125.327903 101.224307-227.237915 225.710574-227.237915s225.710574 101.910011 225.710574 227.237915c0 125.379881-101.224307 227.289892-225.710574 227.289892S286.517518 410.316891 286.517518 284.93601z m84.616476 0c0 78.337186 63.283684 142.049686 141.094098 142.049686s141.094098-63.712499 141.094098-142.049686c0-78.286208-63.284684-142.049686-141.095097-142.049686s-141.094098 63.764477-141.094098 142.049686z" p-id="3325"></path></svg>