<?xml version="1.0" standalone="no"?><!DOCTYPE svg PUBLIC "-//W3C//DTD SVG 1.1//EN" "http://www.w3.org/Graphics/SVG/1.1/DTD/svg11.dtd"><svg t="1622949554493" class="icon" viewBox="0 0 1024 1024" version="1.1" xmlns="http://www.w3.org/2000/svg" p-id="5043" xmlns:xlink="http://www.w3.org/1999/xlink" width="200" height="200"><defs><style type="text/css"></style></defs><path d="M670.921097 969.744306a99.7447 99.7447 0 0 1-99.641727-99.59574v-199.247464a99.773692 99.773692 0 0 1 99.641727-99.59174h199.230469a99.733703 99.733703 0 0 1 99.59074 99.595739v199.247464a99.700712 99.700712 0 0 1-99.59074 99.591741z m-14.243244-298.839205v199.247464a14.277235 14.277235 0 0 0 14.243244 14.238246h199.230469a14.277235 14.277235 0 0 0 14.242244-14.242245v-199.247464a14.310227 14.310227 0 0 0-14.242244-14.242244H670.921097a14.310227 14.310227 0 0 0-14.243244 14.246243zM158.624175 969.744306a99.7447 99.7447 0 0 1-99.641727-99.59574v-199.247464a99.773692 99.773692 0 0 1 99.641727-99.59174h199.231469a99.733703 99.733703 0 0 1 99.589741 99.595739v199.247464a99.700712 99.700712 0 0 1-99.589741 99.591741z m-14.242244-298.839205v199.247464a14.277235 14.277235 0 0 0 14.242244 14.242245h199.231469a14.277235 14.277235 0 0 0 14.244244-14.246244v-199.247464a14.310227 14.310227 0 0 0-14.242245-14.242244H158.624175a14.310227 14.310227 0 0 0-14.242244 14.246243zM670.921097 457.419391a99.7447 99.7447 0 0 1-99.641727-99.595739V158.580187a99.773692 99.773692 0 0 1 99.641727-99.59574h199.230469a99.733703 99.733703 0 0 1 99.59074 99.59574v199.247464a99.700712 99.700712 0 0 1-99.59074 99.595739z m-14.243244-298.839204v199.247464a14.277235 14.277235 0 0 0 14.243244 14.238246h199.230469a14.277235 14.277235 0 0 0 14.242244-14.243245V158.580187a14.311227 14.311227 0 0 0-14.242244-14.242245H670.921097a14.311227 14.311227 0 0 0-14.243244 14.242245zM158.624175 457.419391a99.7447 99.7447 0 0 1-99.641727-99.595739V158.580187a99.773692 99.773692 0 0 1 99.641727-99.59574h199.231469a99.733703 99.733703 0 0 1 99.589741 99.59574v199.247464a99.700712 99.700712 0 0 1-99.589741 99.595739z m-14.242244-298.839204v199.247464a14.277235 14.277235 0 0 0 14.242244 14.243244h199.231469a14.277235 14.277235 0 0 0 14.244244-14.247243V158.580187a14.311227 14.311227 0 0 0-14.242245-14.242245H158.624175a14.311227 14.311227 0 0 0-14.242244 14.242245z" p-id="5044" fill="#d81e06"></path></svg>